<?xml version="1.0" encoding="UTF-8" standalone="no"?>
<!-- Created with Inkscape (http://www.inkscape.org/) -->

<svg
   width="64"
   height="64"
   viewBox="0 0 16.933333 16.933333"
   version="1.1"
   id="svg297"
   inkscape:version="1.1.1 (1:1.1+202109281946+c3084ef5ed)"
   sodipodi:docname="django.svg"
   xmlns:inkscape="http://www.inkscape.org/namespaces/inkscape"
   xmlns:sodipodi="http://sodipodi.sourceforge.net/DTD/sodipodi-0.dtd"
   xmlns="http://www.w3.org/2000/svg"
   xmlns:svg="http://www.w3.org/2000/svg">
  <sodipodi:namedview
     id="namedview299"
     pagecolor="#ffffff"
     bordercolor="#666666"
     borderopacity="1.0"
     inkscape:pageshadow="2"
     inkscape:pageopacity="0.0"
     inkscape:pagecheckerboard="0"
     inkscape:document-units="px"
     showgrid="false"
     units="px"
     height="65px"
     inkscape:zoom="5.12"
     inkscape:cx="18.75"
     inkscape:cy="43.75"
     inkscape:window-width="1503"
     inkscape:window-height="773"
     inkscape:window-x="1970"
     inkscape:window-y="89"
     inkscape:window-maximized="0"
     inkscape:current-layer="layer1"
     width="64px" />
  <defs
     id="defs294" />
  <g
     inkscape:label="Layer 1"
     inkscape:groupmode="layer"
     id="layer1">
    <g
       style="clip-rule:evenodd;opacity:1;fill-rule:evenodd;image-rendering:optimizeQuality;shape-rendering:geometricPrecision;text-rendering:geometricPrecision"
       id="g354"
       transform="matrix(5.0893353e-5,0,0,5.0800202e-5,1.3542548,0.0709854)">
      <path
         d="m 117587,0 h 54579 v 250154 c -27956,5288 -48537,7369 -70805,7369 C 34700,257453 0,227673 0,170476 0,115368 36807,79602 93845,79602 c 8851,0 15594,697 23742,2783 z m 143831,86317 v 125248 c 0,43133 -3231,63876 -12714,81759 -8851,17193 -20511,28034 -44604,40008 l -50645,-23866 c 24093,-11197 35753,-21091 43200,-36189 7796,-15440 10255,-33324 10255,-80361 V 86317 h 54509 v -1 z M 201409,0 h 54579 v 55457 h -54579 z m -81909,127465 c -6392,-2087 -11660,-2783 -18404,-2783 -27605,0 -43550,16838 -43550,46348 0,28731 15243,44595 43200,44595 6040,0 10957,-340 18754,-1384 z"
         fill="#2ba977"
         id="path345" />
    </g>
  </g>
</svg>
