<svg xmlns="http://www.w3.org/2000/svg" width="375" viewBox="0 0 375 375" height="375" version="1.0"><defs><clipPath id="a"><path d="M 71 158.929688 L 101 158.929688 L 101 177 L 71 177 Z M 71 158.929688"/></clipPath><clipPath id="b"><path d="M 100 161 L 110.523438 161 L 110.523438 186 L 100 186 Z M 100 161"/></clipPath><clipPath id="c"><path d="M 85 175 L 110.523438 175 L 110.523438 204.679688 L 85 204.679688 Z M 85 175"/></clipPath><clipPath id="d"><path d="M 75 192 L 97 192 L 97 204.679688 L 75 204.679688 Z M 75 192"/></clipPath><clipPath id="e"><path d="M 61.023438 161 L 77 161 L 77 204.679688 L 61.023438 204.679688 Z M 61.023438 161"/></clipPath><clipPath id="f"><path d="M 61.023438 173 L 72 173 L 72 180 L 61.023438 180 Z M 61.023438 173"/></clipPath></defs><g clip-path="url(#a)"><path fill="#432A59" d="M 95.507812 176.289062 C 95.464844 176.289062 95.425781 176.277344 95.390625 176.253906 L 85.71875 170.386719 L 76.21875 176.253906 C 76.144531 176.300781 76.066406 176.300781 75.992188 176.261719 L 71.3125 173.757812 C 71.234375 173.71875 71.195312 173.652344 71.191406 173.5625 C 71.191406 173.472656 71.226562 173.402344 71.304688 173.359375 L 81.070312 167.621094 L 71.308594 162.191406 C 71.234375 162.144531 71.195312 162.082031 71.191406 161.992188 C 71.191406 161.902344 71.230469 161.835938 71.304688 161.792969 L 76.058594 158.976562 C 76.136719 158.929688 76.214844 158.929688 76.292969 158.976562 L 85.722656 164.460938 L 95.269531 159.175781 C 95.347656 159.132812 95.421875 159.132812 95.496094 159.175781 L 100.457031 161.976562 C 100.53125 162.019531 100.570312 162.085938 100.570312 162.175781 C 100.574219 162.261719 100.535156 162.328125 100.457031 162.375 L 91.210938 167.773438 L 100.457031 173.125 C 100.53125 173.167969 100.570312 173.234375 100.570312 173.324219 C 100.570312 173.410156 100.53125 173.476562 100.453125 173.519531 L 95.621094 176.257812 C 95.585938 176.277344 95.550781 176.289062 95.507812 176.289062 Z M 71.890625 173.546875 L 76.089844 175.792969 L 85.597656 169.921875 C 85.679688 169.875 85.757812 169.875 85.835938 169.921875 L 95.511719 175.792969 L 99.878906 173.320312 L 90.640625 167.972656 C 90.5625 167.925781 90.523438 167.859375 90.523438 167.773438 C 90.523438 167.683594 90.5625 167.617188 90.640625 167.574219 L 99.882812 162.179688 L 95.382812 159.636719 L 85.828125 164.925781 C 85.753906 164.96875 85.679688 164.964844 85.605469 164.921875 L 76.175781 159.441406 L 71.882812 161.984375 L 81.644531 167.414062 C 81.722656 167.457031 81.761719 167.523438 81.761719 167.613281 C 81.761719 167.703125 81.726562 167.769531 81.648438 167.816406 Z M 71.890625 173.546875"/></g><g clip-path="url(#b)"><path fill="#432A59" d="M 100.46875 185.128906 C 100.316406 185.128906 100.242188 185.050781 100.238281 184.902344 L 100.175781 173.480469 C 100.078125 173.375 100.078125 173.269531 100.175781 173.164062 L 100.113281 162.179688 C 100.113281 162.023438 100.1875 161.949219 100.339844 161.949219 L 100.34375 161.949219 C 100.496094 161.949219 100.570312 162.023438 100.570312 162.175781 L 100.632812 173.226562 L 110.378906 178.984375 C 110.453125 179.03125 110.492188 179.097656 110.492188 179.183594 C 110.492188 179.273438 110.453125 179.339844 110.375 179.382812 L 100.585938 185.097656 C 100.546875 185.117188 100.511719 185.128906 100.46875 185.128906 Z M 100.636719 173.761719 L 100.695312 184.5 L 109.808594 179.183594 Z M 100.636719 173.761719"/></g><g clip-path="url(#c)"><path fill="#432A59" d="M 95.820312 204.679688 C 95.667969 204.679688 95.59375 204.601562 95.59375 204.449219 L 95.59375 193.417969 L 86.042969 199 C 85.964844 199.046875 85.890625 199.046875 85.8125 199 C 85.738281 198.957031 85.699219 198.890625 85.699219 198.804688 L 85.652344 193.195312 C 85.652344 193.105469 85.691406 193.039062 85.769531 192.996094 L 95.300781 187.492188 L 95.28125 176.058594 C 95.28125 175.90625 95.355469 175.828125 95.507812 175.828125 C 95.660156 175.828125 95.738281 175.90625 95.738281 176.058594 L 95.757812 187.625 C 95.757812 187.714844 95.71875 187.78125 95.644531 187.824219 L 86.113281 193.328125 L 86.152344 198.40625 L 95.707031 192.820312 C 95.78125 192.773438 95.859375 192.773438 95.933594 192.820312 C 96.011719 192.863281 96.050781 192.929688 96.050781 193.019531 L 96.050781 204.054688 L 100.113281 201.738281 L 100.113281 190.4375 C 100.113281 190.347656 100.152344 190.28125 100.230469 190.238281 L 110.03125 184.765625 L 110.03125 179.183594 C 110.03125 179.03125 110.109375 178.953125 110.261719 178.953125 C 110.414062 178.953125 110.492188 179.03125 110.492188 179.183594 L 110.492188 184.898438 C 110.492188 184.988281 110.453125 185.054688 110.371094 185.101562 L 100.570312 190.574219 L 100.570312 201.871094 C 100.570312 201.957031 100.535156 202.023438 100.457031 202.070312 L 95.933594 204.648438 C 95.898438 204.667969 95.863281 204.679688 95.820312 204.679688 Z M 95.820312 204.679688"/></g><path fill="#432A59" d="M 95.527344 187.855469 C 95.488281 187.855469 95.449219 187.84375 95.414062 187.824219 L 85.765625 182.117188 C 85.691406 182.074219 85.65625 182.007812 85.652344 181.921875 L 85.488281 170.121094 C 85.488281 169.96875 85.5625 169.890625 85.714844 169.886719 C 85.867188 169.886719 85.945312 169.960938 85.949219 170.113281 L 86.109375 181.789062 L 95.644531 187.425781 C 95.746094 187.488281 95.78125 187.574219 95.75 187.6875 C 95.71875 187.796875 95.644531 187.855469 95.527344 187.855469 Z M 95.527344 187.855469"/><path fill="#432A59" d="M 85.882812 193.421875 C 85.839844 193.421875 85.804688 193.414062 85.769531 193.394531 L 75.984375 187.824219 C 75.910156 187.78125 75.871094 187.714844 75.871094 187.625 C 75.871094 187.539062 75.90625 187.472656 75.984375 187.425781 L 85.765625 181.722656 C 85.898438 181.640625 86.003906 181.667969 86.082031 181.800781 C 86.160156 181.9375 86.132812 182.042969 85.996094 182.117188 L 76.558594 187.621094 L 85.996094 192.992188 C 86.097656 193.050781 86.132812 193.136719 86.105469 193.253906 C 86.074219 193.367188 86 193.421875 85.882812 193.421875 Z M 85.882812 193.421875"/><path fill="#432A59" d="M 76.097656 187.855469 C 75.945312 187.855469 75.871094 187.777344 75.871094 187.625 L 75.871094 176.058594 C 75.871094 175.90625 75.945312 175.828125 76.097656 175.828125 C 76.25 175.828125 76.328125 175.90625 76.328125 176.058594 L 76.328125 187.625 C 76.328125 187.777344 76.25 187.855469 76.097656 187.855469 Z M 76.097656 187.855469"/><g clip-path="url(#d)"><path fill="#432A59" d="M 95.820312 204.679688 C 95.78125 204.679688 95.742188 204.667969 95.707031 204.648438 L 85.925781 199.066406 L 76.210938 204.648438 C 76.136719 204.691406 76.058594 204.691406 75.984375 204.648438 C 75.90625 204.601562 75.871094 204.539062 75.871094 204.449219 L 75.871094 193.195312 C 75.871094 193.105469 75.90625 193.039062 75.984375 192.996094 C 76.058594 192.953125 76.136719 192.953125 76.210938 192.996094 L 86.035156 198.601562 L 86.042969 198.605469 L 95.933594 204.25 C 96.035156 204.308594 96.070312 204.394531 96.042969 204.507812 C 96.011719 204.621094 95.9375 204.679688 95.820312 204.679688 Z M 76.328125 193.589844 L 76.328125 204.054688 L 85.464844 198.804688 Z M 76.328125 193.589844"/></g><g clip-path="url(#e)"><path fill="#432A59" d="M 76.097656 204.679688 C 76.058594 204.679688 76.023438 204.667969 75.992188 204.652344 L 71.019531 201.972656 C 70.9375 201.925781 70.898438 201.859375 70.898438 201.769531 L 70.957031 190.386719 L 61.1875 184.835938 C 61.109375 184.792969 61.070312 184.726562 61.070312 184.636719 L 61.078125 178.917969 C 61.078125 178.828125 61.117188 178.761719 61.195312 178.71875 C 61.273438 178.675781 61.351562 178.675781 61.425781 178.722656 L 71.039062 184.675781 L 71.191406 161.988281 C 71.191406 161.835938 71.269531 161.757812 71.421875 161.757812 C 71.574219 161.761719 71.652344 161.835938 71.648438 161.992188 L 71.496094 185.085938 C 71.492188 185.175781 71.453125 185.242188 71.375 185.285156 C 71.296875 185.328125 71.222656 185.328125 71.144531 185.28125 L 61.535156 179.332031 L 61.53125 184.503906 L 71.300781 190.054688 C 71.378906 190.097656 71.417969 190.164062 71.417969 190.253906 L 71.355469 201.632812 L 76.207031 204.246094 C 76.3125 204.304688 76.347656 204.390625 76.320312 204.503906 C 76.289062 204.621094 76.214844 204.679688 76.097656 204.679688 Z M 76.097656 204.679688"/></g><g clip-path="url(#f)"><path fill="#432A59" d="M 61.308594 179.148438 C 61.1875 179.148438 61.113281 179.089844 61.085938 178.972656 C 61.054688 178.859375 61.09375 178.773438 61.199219 178.714844 L 71.3125 173.351562 C 71.371094 173.320312 71.429688 173.316406 71.492188 173.332031 C 71.554688 173.351562 71.597656 173.390625 71.628906 173.445312 C 71.660156 173.503906 71.664062 173.5625 71.644531 173.625 C 71.625 173.6875 71.585938 173.730469 71.527344 173.757812 L 61.414062 179.121094 C 61.378906 179.140625 61.34375 179.148438 61.308594 179.148438 Z M 61.308594 179.148438"/></g><g fill="#432A59"><g><g><path d="M 0.21875 -17.78125 L 0.21875 -22.21875 L 15.84375 -22.21875 L 15.84375 -17.78125 L 10.5625 -17.78125 L 10.5625 0 L 5.5 0 L 5.5 -17.78125 Z M 0.21875 -17.78125" transform="translate(116.655 176.927)"/></g></g></g><g fill="#432A59"><g><g><path d="M 15.59375 -6.25 L 5.578125 -6.25 C 5.578125 -5.28125 5.890625 -4.5625 6.515625 -4.09375 C 7.148438 -3.625 7.832031 -3.390625 8.5625 -3.390625 C 9.332031 -3.390625 9.941406 -3.492188 10.390625 -3.703125 C 10.847656 -3.910156 11.363281 -4.316406 11.9375 -4.921875 L 15.375 -3.203125 C 13.9375 -0.796875 11.550781 0.40625 8.21875 0.40625 C 6.132812 0.40625 4.347656 -0.304688 2.859375 -1.734375 C 1.367188 -3.160156 0.625 -4.878906 0.625 -6.890625 C 0.625 -8.898438 1.367188 -10.625 2.859375 -12.0625 C 4.347656 -13.5 6.132812 -14.21875 8.21875 -14.21875 C 10.40625 -14.21875 12.1875 -13.582031 13.5625 -12.3125 C 14.9375 -11.050781 15.625 -9.242188 15.625 -6.890625 C 15.625 -6.566406 15.613281 -6.351562 15.59375 -6.25 Z M 5.703125 -8.890625 L 10.96875 -8.890625 C 10.851562 -9.609375 10.566406 -10.160156 10.109375 -10.546875 C 9.648438 -10.929688 9.0625 -11.125 8.34375 -11.125 C 7.5625 -11.125 6.9375 -10.914062 6.46875 -10.5 C 6 -10.09375 5.742188 -9.554688 5.703125 -8.890625 Z M 5.703125 -8.890625" transform="translate(132.705 176.927)"/></g></g></g><g fill="#432A59"><g><g><path d="M 8.96875 -10.3125 C 8.070312 -10.3125 7.300781 -9.976562 6.65625 -9.3125 C 6.007812 -8.65625 5.6875 -7.859375 5.6875 -6.921875 C 5.6875 -5.972656 6.007812 -5.164062 6.65625 -4.5 C 7.300781 -3.832031 8.070312 -3.5 8.96875 -3.5 C 9.394531 -3.5 9.800781 -3.550781 10.1875 -3.65625 C 10.582031 -3.769531 10.867188 -3.878906 11.046875 -3.984375 L 11.28125 -4.140625 L 12.90625 -0.828125 C 12.78125 -0.742188 12.601562 -0.632812 12.375 -0.5 C 12.15625 -0.363281 11.644531 -0.179688 10.84375 0.046875 C 10.039062 0.285156 9.179688 0.40625 8.265625 0.40625 C 6.234375 0.40625 4.453125 -0.304688 2.921875 -1.734375 C 1.390625 -3.160156 0.625 -4.875 0.625 -6.875 C 0.625 -8.882812 1.390625 -10.609375 2.921875 -12.046875 C 4.453125 -13.492188 6.234375 -14.21875 8.265625 -14.21875 C 9.179688 -14.21875 10.023438 -14.109375 10.796875 -13.890625 C 11.566406 -13.679688 12.113281 -13.46875 12.4375 -13.25 L 12.90625 -12.9375 L 11.28125 -9.671875 C 10.6875 -10.097656 9.914062 -10.3125 8.96875 -10.3125 Z M 8.96875 -10.3125" transform="translate(148.944 176.927)"/></g></g></g><g fill="#432A59"><g><g><path d="M 1.609375 0 L 1.609375 -23.171875 L 6.390625 -23.171875 L 6.390625 -12.359375 L 6.4375 -12.359375 C 7.675781 -13.597656 8.992188 -14.21875 10.390625 -14.21875 C 11.078125 -14.21875 11.753906 -14.128906 12.421875 -13.953125 C 13.097656 -13.773438 13.742188 -13.492188 14.359375 -13.109375 C 14.984375 -12.734375 15.488281 -12.203125 15.875 -11.515625 C 16.257812 -10.828125 16.453125 -10.023438 16.453125 -9.109375 L 16.453125 0 L 11.6875 0 L 11.6875 -7.8125 C 11.6875 -8.53125 11.457031 -9.15625 11 -9.6875 C 10.539062 -10.226562 9.945312 -10.5 9.21875 -10.5 C 8.5 -10.5 7.847656 -10.21875 7.265625 -9.65625 C 6.679688 -9.101562 6.390625 -8.488281 6.390625 -7.8125 L 6.390625 0 Z M 1.609375 0" transform="translate(162.166 176.927)"/></g></g></g><g fill="#432A59"><g><g><path d="M 1.609375 0 L 1.609375 -13.8125 L 6.390625 -13.8125 L 6.390625 -12.359375 L 6.4375 -12.359375 C 7.675781 -13.597656 8.992188 -14.21875 10.390625 -14.21875 C 11.078125 -14.21875 11.753906 -14.128906 12.421875 -13.953125 C 13.097656 -13.773438 13.742188 -13.492188 14.359375 -13.109375 C 14.984375 -12.734375 15.488281 -12.203125 15.875 -11.515625 C 16.257812 -10.828125 16.453125 -10.023438 16.453125 -9.109375 L 16.453125 0 L 11.6875 0 L 11.6875 -7.8125 C 11.6875 -8.53125 11.457031 -9.15625 11 -9.6875 C 10.539062 -10.226562 9.945312 -10.5 9.21875 -10.5 C 8.5 -10.5 7.847656 -10.21875 7.265625 -9.65625 C 6.679688 -9.101562 6.390625 -8.488281 6.390625 -7.8125 L 6.390625 0 Z M 1.609375 0" transform="translate(179.967 176.927)"/></g></g></g><g fill="#432A59"><g><g><path d="M 2.921875 -1.640625 C 1.390625 -3.003906 0.625 -4.753906 0.625 -6.890625 C 0.625 -9.023438 1.421875 -10.78125 3.015625 -12.15625 C 4.617188 -13.53125 6.59375 -14.21875 8.9375 -14.21875 C 11.257812 -14.21875 13.210938 -13.523438 14.796875 -12.140625 C 16.390625 -10.765625 17.1875 -9.015625 17.1875 -6.890625 C 17.1875 -4.773438 16.410156 -3.03125 14.859375 -1.65625 C 13.304688 -0.28125 11.332031 0.40625 8.9375 0.40625 C 6.457031 0.40625 4.453125 -0.273438 2.921875 -1.640625 Z M 6.609375 -9.234375 C 5.992188 -8.628906 5.6875 -7.847656 5.6875 -6.890625 C 5.6875 -5.941406 5.984375 -5.164062 6.578125 -4.5625 C 7.171875 -3.957031 7.953125 -3.65625 8.921875 -3.65625 C 9.847656 -3.65625 10.613281 -3.960938 11.21875 -4.578125 C 11.820312 -5.191406 12.125 -5.960938 12.125 -6.890625 C 12.125 -7.847656 11.8125 -8.628906 11.1875 -9.234375 C 10.570312 -9.847656 9.816406 -10.15625 8.921875 -10.15625 C 8.003906 -10.15625 7.234375 -9.847656 6.609375 -9.234375 Z M 6.609375 -9.234375" transform="translate(197.767 176.927)"/></g></g></g><g fill="#432A59"><g><g><path d="M 8.96875 -10.3125 C 8.070312 -10.3125 7.300781 -9.976562 6.65625 -9.3125 C 6.007812 -8.65625 5.6875 -7.859375 5.6875 -6.921875 C 5.6875 -5.972656 6.007812 -5.164062 6.65625 -4.5 C 7.300781 -3.832031 8.070312 -3.5 8.96875 -3.5 C 9.394531 -3.5 9.800781 -3.550781 10.1875 -3.65625 C 10.582031 -3.769531 10.867188 -3.878906 11.046875 -3.984375 L 11.28125 -4.140625 L 12.90625 -0.828125 C 12.78125 -0.742188 12.601562 -0.632812 12.375 -0.5 C 12.15625 -0.363281 11.644531 -0.179688 10.84375 0.046875 C 10.039062 0.285156 9.179688 0.40625 8.265625 0.40625 C 6.234375 0.40625 4.453125 -0.304688 2.921875 -1.734375 C 1.390625 -3.160156 0.625 -4.875 0.625 -6.875 C 0.625 -8.882812 1.390625 -10.609375 2.921875 -12.046875 C 4.453125 -13.492188 6.234375 -14.21875 8.265625 -14.21875 C 9.179688 -14.21875 10.023438 -14.109375 10.796875 -13.890625 C 11.566406 -13.679688 12.113281 -13.46875 12.4375 -13.25 L 12.90625 -12.9375 L 11.28125 -9.671875 C 10.6875 -10.097656 9.914062 -10.3125 8.96875 -10.3125 Z M 8.96875 -10.3125" transform="translate(215.568 176.927)"/></g></g></g><g fill="#432A59"><g><g><path d="M 1.609375 0 L 1.609375 -13.8125 L 6.390625 -13.8125 L 6.390625 -11.828125 L 6.4375 -11.828125 C 6.46875 -11.898438 6.523438 -11.988281 6.609375 -12.09375 C 6.691406 -12.195312 6.867188 -12.382812 7.140625 -12.65625 C 7.410156 -12.925781 7.695312 -13.171875 8 -13.390625 C 8.300781 -13.609375 8.691406 -13.800781 9.171875 -13.96875 C 9.660156 -14.132812 10.160156 -14.21875 10.671875 -14.21875 C 11.191406 -14.21875 11.703125 -14.144531 12.203125 -14 C 12.703125 -13.863281 13.070312 -13.722656 13.3125 -13.578125 L 13.6875 -13.359375 L 11.6875 -9.328125 C 11.09375 -9.828125 10.269531 -10.078125 9.21875 -10.078125 C 8.632812 -10.078125 8.132812 -9.953125 7.71875 -9.703125 C 7.3125 -9.453125 7.019531 -9.144531 6.84375 -8.78125 C 6.675781 -8.425781 6.554688 -8.117188 6.484375 -7.859375 C 6.421875 -7.609375 6.390625 -7.410156 6.390625 -7.265625 L 6.390625 0 Z M 1.609375 0" transform="translate(228.79 176.927)"/></g></g></g><g fill="#432A59"><g><g><path d="M 2.5625 -1.703125 C 1.269531 -3.117188 0.625 -4.847656 0.625 -6.890625 C 0.625 -8.941406 1.269531 -10.675781 2.5625 -12.09375 C 3.851562 -13.507812 5.492188 -14.21875 7.484375 -14.21875 C 9.316406 -14.21875 10.828125 -13.644531 12.015625 -12.5 L 12.015625 -13.8125 L 16.78125 -13.8125 L 16.78125 0 L 12.0625 0 L 12.0625 -1.5625 L 12.015625 -1.5625 C 10.828125 -0.25 9.316406 0.40625 7.484375 0.40625 C 5.492188 0.40625 3.851562 -0.296875 2.5625 -1.703125 Z M 6.609375 -9.234375 C 5.992188 -8.628906 5.6875 -7.847656 5.6875 -6.890625 C 5.6875 -5.941406 5.984375 -5.164062 6.578125 -4.5625 C 7.171875 -3.957031 7.953125 -3.65625 8.921875 -3.65625 C 9.847656 -3.65625 10.613281 -3.960938 11.21875 -4.578125 C 11.820312 -5.191406 12.125 -5.960938 12.125 -6.890625 C 12.125 -7.847656 11.8125 -8.628906 11.1875 -9.234375 C 10.570312 -9.847656 9.816406 -10.15625 8.921875 -10.15625 C 8.003906 -10.15625 7.234375 -9.847656 6.609375 -9.234375 Z M 6.609375 -9.234375" transform="translate(242.201 176.927)"/></g></g></g><g fill="#432A59"><g><g><path d="M 2.421875 -13.8125 L 2.421875 -18.96875 L 7.1875 -18.96875 L 7.1875 -13.8125 L 10.09375 -13.8125 L 10.09375 -10.1875 L 7.1875 -10.1875 L 7.1875 -5.796875 C 7.1875 -4.515625 7.546875 -3.875 8.265625 -3.875 C 8.453125 -3.875 8.640625 -3.910156 8.828125 -3.984375 C 9.023438 -4.054688 9.179688 -4.128906 9.296875 -4.203125 L 9.453125 -4.3125 L 10.640625 -0.453125 C 9.617188 0.117188 8.453125 0.40625 7.140625 0.40625 C 6.242188 0.40625 5.472656 0.25 4.828125 -0.0625 C 4.179688 -0.375 3.691406 -0.796875 3.359375 -1.328125 C 3.023438 -1.859375 2.785156 -2.414062 2.640625 -3 C 2.492188 -3.582031 2.421875 -4.207031 2.421875 -4.875 L 2.421875 -10.1875 L 0.4375 -10.1875 L 0.4375 -13.8125 Z M 2.421875 -13.8125" transform="translate(260.594 176.927)"/></g></g></g><g fill="#432A59"><g><g><path d="M 7.625 -14.21875 C 8.414062 -14.21875 9.195312 -14.128906 9.96875 -13.953125 C 10.738281 -13.773438 11.3125 -13.597656 11.6875 -13.421875 L 12.25 -13.140625 L 10.6875 -10.015625 C 9.613281 -10.585938 8.59375 -10.875 7.625 -10.875 C 7.082031 -10.875 6.695312 -10.816406 6.46875 -10.703125 C 6.25 -10.585938 6.140625 -10.367188 6.140625 -10.046875 C 6.140625 -9.972656 6.148438 -9.898438 6.171875 -9.828125 C 6.191406 -9.753906 6.226562 -9.6875 6.28125 -9.625 C 6.332031 -9.5625 6.378906 -9.507812 6.421875 -9.46875 C 6.460938 -9.425781 6.535156 -9.375 6.640625 -9.3125 C 6.753906 -9.257812 6.84375 -9.21875 6.90625 -9.1875 C 6.96875 -9.164062 7.070312 -9.128906 7.21875 -9.078125 C 7.363281 -9.023438 7.472656 -8.984375 7.546875 -8.953125 C 7.617188 -8.929688 7.738281 -8.890625 7.90625 -8.828125 C 8.070312 -8.773438 8.203125 -8.742188 8.296875 -8.734375 C 8.847656 -8.566406 9.332031 -8.382812 9.75 -8.1875 C 10.164062 -7.988281 10.601562 -7.71875 11.0625 -7.375 C 11.519531 -7.039062 11.875 -6.613281 12.125 -6.09375 C 12.375 -5.570312 12.5 -4.976562 12.5 -4.3125 C 12.5 -1.164062 10.316406 0.40625 5.953125 0.40625 C 4.960938 0.40625 4.023438 0.253906 3.140625 -0.046875 C 2.253906 -0.359375 1.613281 -0.664062 1.21875 -0.96875 L 0.625 -1.453125 L 2.5625 -4.71875 C 2.707031 -4.59375 2.894531 -4.441406 3.125 -4.265625 C 3.351562 -4.097656 3.773438 -3.863281 4.390625 -3.5625 C 5.003906 -3.269531 5.535156 -3.125 5.984375 -3.125 C 6.972656 -3.125 7.46875 -3.457031 7.46875 -4.125 C 7.46875 -4.425781 7.335938 -4.660156 7.078125 -4.828125 C 6.828125 -5.003906 6.398438 -5.195312 5.796875 -5.40625 C 5.203125 -5.625 4.734375 -5.820312 4.390625 -6 C 3.523438 -6.457031 2.84375 -6.96875 2.34375 -7.53125 C 1.84375 -8.09375 1.59375 -8.84375 1.59375 -9.78125 C 1.59375 -11.175781 2.132812 -12.265625 3.21875 -13.046875 C 4.300781 -13.828125 5.769531 -14.21875 7.625 -14.21875 Z M 7.625 -14.21875" transform="translate(271.232 176.927)"/></g></g></g><g fill="#CB9C9A"><g><g><path d="M 6.40625 -21.328125 L 6.40625 -4.265625 L 13.75 -4.265625 L 13.75 0 L 1.546875 0 L 1.546875 -21.328125 Z M 6.40625 -21.328125" transform="translate(116.655 200.927)"/></g></g></g><g fill="#CB9C9A"><g><g><path d="M 2.453125 -1.640625 C 1.210938 -2.992188 0.59375 -4.648438 0.59375 -6.609375 C 0.59375 -8.578125 1.210938 -10.238281 2.453125 -11.59375 C 3.691406 -12.957031 5.269531 -13.640625 7.1875 -13.640625 C 8.945312 -13.640625 10.394531 -13.085938 11.53125 -11.984375 L 11.53125 -13.265625 L 16.09375 -13.265625 L 16.09375 0 L 11.578125 0 L 11.578125 -1.5 L 11.53125 -1.5 C 10.394531 -0.238281 8.945312 0.390625 7.1875 0.390625 C 5.269531 0.390625 3.691406 -0.285156 2.453125 -1.640625 Z M 6.34375 -8.859375 C 5.75 -8.273438 5.453125 -7.523438 5.453125 -6.609375 C 5.453125 -5.703125 5.734375 -4.957031 6.296875 -4.375 C 6.867188 -3.800781 7.617188 -3.515625 8.546875 -3.515625 C 9.441406 -3.515625 10.175781 -3.804688 10.75 -4.390625 C 11.332031 -4.972656 11.625 -5.710938 11.625 -6.609375 C 11.625 -7.523438 11.328125 -8.273438 10.734375 -8.859375 C 10.140625 -9.453125 9.410156 -9.75 8.546875 -9.75 C 7.671875 -9.75 6.9375 -9.453125 6.34375 -8.859375 Z M 6.34375 -8.859375" transform="translate(131.248 200.927)"/></g></g></g><g fill="#CB9C9A"><g><g><path d="M 15.1875 -11.59375 C 16.4375 -10.238281 17.0625 -8.578125 17.0625 -6.609375 C 17.0625 -4.648438 16.4375 -2.992188 15.1875 -1.640625 C 13.945312 -0.285156 12.375 0.390625 10.46875 0.390625 C 8.707031 0.390625 7.257812 -0.238281 6.125 -1.5 L 6.078125 -1.5 L 6.078125 0 L 1.546875 0 L 1.546875 -22.21875 L 6.125 -22.21875 L 6.125 -11.984375 C 7.257812 -13.085938 8.707031 -13.640625 10.46875 -13.640625 C 12.375 -13.640625 13.945312 -12.957031 15.1875 -11.59375 Z M 11.34375 -4.375 C 11.914062 -4.957031 12.203125 -5.703125 12.203125 -6.609375 C 12.203125 -7.523438 11.90625 -8.273438 11.3125 -8.859375 C 10.71875 -9.453125 9.976562 -9.75 9.09375 -9.75 C 8.238281 -9.75 7.507812 -9.453125 6.90625 -8.859375 C 6.3125 -8.273438 6.015625 -7.523438 6.015625 -6.609375 C 6.015625 -5.710938 6.300781 -4.972656 6.875 -4.390625 C 7.457031 -3.804688 8.195312 -3.515625 9.09375 -3.515625 C 10.03125 -3.515625 10.78125 -3.800781 11.34375 -4.375 Z M 11.34375 -4.375" transform="translate(148.888 200.927)"/></g></g></g><g fill="#CB9C9A"><g><g><path d="M 4.5 -5.53125 C 5.320312 -5.53125 6.019531 -5.238281 6.59375 -4.65625 C 7.175781 -4.082031 7.46875 -3.382812 7.46875 -2.5625 C 7.46875 -1.75 7.175781 -1.050781 6.59375 -0.46875 C 6.019531 0.101562 5.320312 0.390625 4.5 0.390625 C 3.6875 0.390625 2.988281 0.101562 2.40625 -0.46875 C 1.832031 -1.050781 1.546875 -1.75 1.546875 -2.5625 C 1.546875 -3.382812 1.832031 -4.082031 2.40625 -4.65625 C 2.988281 -5.238281 3.6875 -5.53125 4.5 -5.53125 Z M 4.5 -5.53125" transform="translate(166.529 200.927)"/></g></g></g></svg>