<svg xmlns="http://www.w3.org/2000/svg" width="75" viewBox="0 0 75 37.5" height="37.5" version="1.0"><defs><clipPath id="a"><path d="M 6 11.59375 L 16 11.59375 L 16 17 L 6 17 Z M 6 11.59375"/></clipPath><clipPath id="b"><path d="M 15 12 L 18.527344 12 L 18.527344 20 L 15 20 Z M 15 12"/></clipPath><clipPath id="c"><path d="M 10 16 L 18.527344 16 L 18.527344 25.460938 L 10 25.460938 Z M 10 16"/></clipPath><clipPath id="d"><path d="M 8 21 L 15 21 L 15 25.460938 L 8 25.460938 Z M 8 21"/></clipPath><clipPath id="e"><path d="M 3.523438 12 L 9 12 L 9 25.460938 L 3.523438 25.460938 Z M 3.523438 12"/></clipPath><clipPath id="f"><path d="M 3.523438 15 L 7 15 L 7 18 L 3.523438 18 Z M 3.523438 15"/></clipPath></defs><g clip-path="url(#a)"><path fill="#FFF" d="M 13.976562 16.851562 C 13.964844 16.851562 13.949219 16.851562 13.941406 16.84375 L 11.007812 15.066406 L 8.128906 16.84375 C 8.105469 16.855469 8.082031 16.859375 8.058594 16.84375 L 6.644531 16.085938 C 6.617188 16.074219 6.605469 16.054688 6.605469 16.027344 C 6.605469 16 6.617188 15.980469 6.640625 15.964844 L 9.601562 14.226562 L 6.640625 12.582031 C 6.617188 12.566406 6.605469 12.546875 6.605469 12.519531 C 6.605469 12.492188 6.617188 12.472656 6.640625 12.460938 L 8.082031 11.605469 C 8.105469 11.59375 8.128906 11.59375 8.152344 11.605469 L 11.007812 13.269531 L 13.902344 11.667969 C 13.925781 11.652344 13.949219 11.652344 13.972656 11.667969 L 15.476562 12.515625 C 15.5 12.53125 15.511719 12.550781 15.511719 12.574219 C 15.511719 12.601562 15.5 12.625 15.476562 12.636719 L 12.671875 14.273438 L 15.476562 15.894531 C 15.5 15.90625 15.511719 15.929688 15.511719 15.953125 C 15.511719 15.980469 15.5 16 15.476562 16.015625 L 14.011719 16.84375 C 14 16.851562 13.988281 16.851562 13.976562 16.851562 Z M 6.816406 16.023438 L 8.089844 16.703125 L 10.972656 14.925781 C 10.996094 14.910156 11.019531 14.910156 11.042969 14.925781 L 13.976562 16.703125 L 15.300781 15.953125 L 12.5 14.332031 C 12.476562 14.320312 12.464844 14.300781 12.464844 14.273438 C 12.464844 14.246094 12.476562 14.226562 12.5 14.210938 L 15.300781 12.578125 L 13.9375 11.808594 L 11.042969 13.410156 C 11.019531 13.421875 10.996094 13.421875 10.972656 13.410156 L 8.117188 11.746094 L 6.816406 12.519531 L 9.773438 14.164062 C 9.796875 14.175781 9.808594 14.199219 9.808594 14.222656 C 9.808594 14.25 9.796875 14.273438 9.773438 14.285156 Z M 6.816406 16.023438"/></g><g clip-path="url(#b)"><path fill="#FFF" d="M 15.480469 19.53125 C 15.433594 19.53125 15.410156 19.511719 15.410156 19.464844 L 15.390625 16.003906 C 15.359375 15.972656 15.359375 15.9375 15.390625 15.90625 L 15.371094 12.578125 C 15.371094 12.53125 15.394531 12.507812 15.441406 12.507812 C 15.488281 12.507812 15.511719 12.53125 15.511719 12.578125 L 15.527344 15.925781 L 18.484375 17.671875 C 18.503906 17.683594 18.515625 17.703125 18.515625 17.730469 C 18.515625 17.757812 18.503906 17.777344 18.480469 17.792969 L 15.515625 19.523438 C 15.503906 19.53125 15.492188 19.53125 15.480469 19.53125 Z M 15.53125 16.089844 L 15.546875 19.34375 L 18.308594 17.730469 Z M 15.53125 16.089844"/></g><g clip-path="url(#c)"><path fill="#FFF" d="M 14.070312 25.457031 C 14.023438 25.457031 14 25.433594 14 25.390625 L 14 22.046875 L 11.105469 23.738281 C 11.082031 23.75 11.058594 23.75 11.039062 23.738281 C 11.015625 23.726562 11.003906 23.703125 11.003906 23.679688 L 10.988281 21.976562 C 10.988281 21.949219 11 21.929688 11.023438 21.917969 L 13.914062 20.25 L 13.90625 16.785156 C 13.90625 16.738281 13.929688 16.714844 13.976562 16.714844 C 14.023438 16.714844 14.046875 16.738281 14.046875 16.785156 L 14.050781 20.289062 C 14.050781 20.316406 14.039062 20.335938 14.015625 20.351562 L 11.128906 22.019531 L 11.140625 23.558594 L 14.035156 21.863281 C 14.058594 21.851562 14.082031 21.851562 14.105469 21.863281 C 14.128906 21.878906 14.140625 21.898438 14.140625 21.925781 L 14.140625 25.269531 L 15.371094 24.566406 L 15.371094 21.140625 C 15.371094 21.117188 15.382812 21.09375 15.40625 21.082031 L 18.378906 19.421875 L 18.378906 17.730469 C 18.378906 17.683594 18.402344 17.660156 18.445312 17.660156 C 18.492188 17.660156 18.515625 17.683594 18.515625 17.730469 L 18.515625 19.464844 C 18.515625 19.492188 18.503906 19.511719 18.480469 19.523438 L 15.511719 21.183594 L 15.511719 24.605469 C 15.511719 24.632812 15.5 24.652344 15.476562 24.667969 L 14.105469 25.449219 C 14.09375 25.457031 14.082031 25.457031 14.070312 25.457031 Z M 14.070312 25.457031"/></g><path fill="#FFF" d="M 13.980469 20.359375 C 13.96875 20.359375 13.957031 20.355469 13.945312 20.351562 L 11.023438 18.621094 C 11 18.605469 10.988281 18.585938 10.988281 18.5625 L 10.9375 14.984375 C 10.9375 14.9375 10.960938 14.914062 11.007812 14.914062 C 11.054688 14.914062 11.078125 14.9375 11.078125 14.984375 L 11.125 18.519531 L 14.015625 20.230469 C 14.046875 20.246094 14.058594 20.273438 14.046875 20.308594 C 14.039062 20.34375 14.015625 20.359375 13.980469 20.359375 Z M 13.980469 20.359375"/><path fill="#FFF" d="M 11.058594 22.046875 C 11.046875 22.046875 11.035156 22.042969 11.023438 22.039062 L 8.058594 20.351562 C 8.035156 20.335938 8.023438 20.316406 8.023438 20.289062 C 8.023438 20.261719 8.035156 20.242188 8.058594 20.230469 L 11.023438 18.5 C 11.0625 18.476562 11.09375 18.484375 11.117188 18.523438 C 11.144531 18.566406 11.132812 18.597656 11.09375 18.621094 L 8.230469 20.289062 L 11.09375 21.917969 C 11.125 21.933594 11.132812 21.960938 11.125 21.996094 C 11.117188 22.03125 11.09375 22.046875 11.058594 22.046875 Z M 11.058594 22.046875"/><path fill="#FFF" d="M 8.09375 20.359375 C 8.046875 20.359375 8.023438 20.335938 8.023438 20.289062 L 8.023438 16.785156 C 8.023438 16.738281 8.046875 16.714844 8.09375 16.714844 C 8.140625 16.714844 8.164062 16.738281 8.164062 16.785156 L 8.164062 20.289062 C 8.164062 20.335938 8.140625 20.359375 8.09375 20.359375 Z M 8.09375 20.359375"/><g clip-path="url(#d)"><path fill="#FFF" d="M 14.070312 25.457031 C 14.058594 25.457031 14.046875 25.457031 14.035156 25.449219 L 11.070312 23.757812 L 8.128906 25.449219 C 8.105469 25.460938 8.082031 25.460938 8.058594 25.449219 C 8.035156 25.4375 8.023438 25.414062 8.023438 25.390625 L 8.023438 21.976562 C 8.023438 21.949219 8.035156 21.929688 8.058594 21.917969 C 8.082031 21.902344 8.105469 21.902344 8.128906 21.917969 L 11.105469 23.617188 L 14.105469 25.328125 C 14.136719 25.347656 14.144531 25.371094 14.136719 25.40625 C 14.128906 25.441406 14.105469 25.457031 14.070312 25.457031 Z M 8.164062 22.097656 L 8.164062 25.269531 L 10.929688 23.675781 Z M 8.164062 22.097656"/></g><g clip-path="url(#e)"><path fill="#FFF" d="M 8.09375 25.457031 C 8.082031 25.457031 8.070312 25.457031 8.058594 25.449219 L 6.554688 24.636719 C 6.527344 24.625 6.515625 24.605469 6.515625 24.578125 L 6.535156 21.125 L 3.574219 19.445312 C 3.550781 19.429688 3.539062 19.410156 3.539062 19.382812 L 3.539062 17.652344 C 3.539062 17.625 3.550781 17.605469 3.574219 17.589844 C 3.601562 17.578125 3.621094 17.578125 3.644531 17.59375 L 6.558594 19.394531 L 6.605469 12.519531 C 6.605469 12.472656 6.628906 12.449219 6.675781 12.449219 C 6.722656 12.449219 6.746094 12.472656 6.746094 12.519531 L 6.699219 19.519531 C 6.695312 19.546875 6.683594 19.566406 6.660156 19.582031 C 6.636719 19.59375 6.613281 19.59375 6.589844 19.578125 L 3.679688 17.777344 L 3.675781 19.34375 L 6.636719 21.027344 C 6.660156 21.039062 6.671875 21.058594 6.671875 21.085938 L 6.65625 24.535156 L 8.125 25.328125 C 8.15625 25.34375 8.167969 25.371094 8.160156 25.40625 C 8.152344 25.441406 8.128906 25.457031 8.09375 25.457031 Z M 8.09375 25.457031"/></g><g clip-path="url(#f)"><path fill="#FFF" d="M 3.609375 17.71875 C 3.574219 17.71875 3.550781 17.703125 3.542969 17.667969 C 3.535156 17.632812 3.546875 17.605469 3.578125 17.589844 L 6.644531 15.964844 C 6.683594 15.941406 6.714844 15.949219 6.738281 15.992188 C 6.761719 16.035156 6.75 16.066406 6.707031 16.085938 L 3.640625 17.710938 C 3.632812 17.71875 3.621094 17.71875 3.609375 17.71875 Z M 3.609375 17.71875"/></g><g fill="#AD6687"><g><g><path d="M 0.0625 -5.390625 L 0.0625 -6.734375 L 4.8125 -6.734375 L 4.8125 -5.390625 L 3.203125 -5.390625 L 3.203125 0 L 1.671875 0 L 1.671875 -5.390625 Z M 0.0625 -5.390625" transform="translate(20.385 17.058)"/></g></g></g><g fill="#AD6687"><g><g><path d="M 4.734375 -1.890625 L 1.6875 -1.890625 C 1.6875 -1.597656 1.78125 -1.378906 1.96875 -1.234375 C 2.164062 -1.097656 2.375 -1.03125 2.59375 -1.03125 C 2.832031 -1.03125 3.019531 -1.0625 3.15625 -1.125 C 3.289062 -1.1875 3.445312 -1.3125 3.625 -1.5 L 4.671875 -0.96875 C 4.234375 -0.238281 3.507812 0.125 2.5 0.125 C 1.863281 0.125 1.316406 -0.0859375 0.859375 -0.515625 C 0.410156 -0.953125 0.1875 -1.472656 0.1875 -2.078125 C 0.1875 -2.691406 0.410156 -3.21875 0.859375 -3.65625 C 1.316406 -4.09375 1.863281 -4.3125 2.5 -4.3125 C 3.15625 -4.3125 3.691406 -4.117188 4.109375 -3.734375 C 4.523438 -3.347656 4.734375 -2.800781 4.734375 -2.09375 C 4.734375 -1.988281 4.734375 -1.921875 4.734375 -1.890625 Z M 1.734375 -2.703125 L 3.328125 -2.703125 C 3.296875 -2.921875 3.207031 -3.085938 3.0625 -3.203125 C 2.925781 -3.316406 2.75 -3.375 2.53125 -3.375 C 2.289062 -3.375 2.097656 -3.3125 1.953125 -3.1875 C 1.816406 -3.0625 1.742188 -2.898438 1.734375 -2.703125 Z M 1.734375 -2.703125" transform="translate(25.25 17.058)"/></g></g></g><g fill="#AD6687"><g><g><path d="M 2.71875 -3.125 C 2.445312 -3.125 2.210938 -3.023438 2.015625 -2.828125 C 1.816406 -2.628906 1.71875 -2.382812 1.71875 -2.09375 C 1.71875 -1.8125 1.816406 -1.566406 2.015625 -1.359375 C 2.210938 -1.160156 2.445312 -1.0625 2.71875 -1.0625 C 2.851562 -1.0625 2.976562 -1.078125 3.09375 -1.109375 C 3.207031 -1.140625 3.289062 -1.171875 3.34375 -1.203125 L 3.421875 -1.265625 L 3.921875 -0.25 C 3.878906 -0.226562 3.820312 -0.195312 3.75 -0.15625 C 3.6875 -0.113281 3.53125 -0.0546875 3.28125 0.015625 C 3.039062 0.0859375 2.785156 0.125 2.515625 0.125 C 1.890625 0.125 1.34375 -0.0859375 0.875 -0.515625 C 0.414062 -0.953125 0.1875 -1.472656 0.1875 -2.078125 C 0.1875 -2.691406 0.414062 -3.21875 0.875 -3.65625 C 1.34375 -4.09375 1.890625 -4.3125 2.515625 -4.3125 C 2.785156 -4.3125 3.035156 -4.28125 3.265625 -4.21875 C 3.503906 -4.15625 3.675781 -4.085938 3.78125 -4.015625 L 3.921875 -3.921875 L 3.421875 -2.9375 C 3.242188 -3.0625 3.007812 -3.125 2.71875 -3.125 Z M 2.71875 -3.125" transform="translate(30.174 17.058)"/></g></g></g><g fill="#AD6687"><g><g><path d="M 0.484375 0 L 0.484375 -7.03125 L 1.9375 -7.03125 L 1.9375 -3.75 L 1.953125 -3.75 C 2.328125 -4.125 2.726562 -4.3125 3.15625 -4.3125 C 3.363281 -4.3125 3.566406 -4.285156 3.765625 -4.234375 C 3.972656 -4.179688 4.171875 -4.097656 4.359375 -3.984375 C 4.546875 -3.867188 4.695312 -3.703125 4.8125 -3.484375 C 4.9375 -3.273438 5 -3.035156 5 -2.765625 L 5 0 L 3.546875 0 L 3.546875 -2.375 C 3.546875 -2.59375 3.472656 -2.78125 3.328125 -2.9375 C 3.191406 -3.101562 3.015625 -3.1875 2.796875 -3.1875 C 2.578125 -3.1875 2.378906 -3.101562 2.203125 -2.9375 C 2.023438 -2.769531 1.9375 -2.582031 1.9375 -2.375 L 1.9375 0 Z M 0.484375 0" transform="translate(34.182 17.058)"/></g></g></g><g fill="#AD6687"><g><g><path d="M 0.484375 0 L 0.484375 -4.1875 L 1.9375 -4.1875 L 1.9375 -3.75 L 1.953125 -3.75 C 2.328125 -4.125 2.726562 -4.3125 3.15625 -4.3125 C 3.363281 -4.3125 3.566406 -4.285156 3.765625 -4.234375 C 3.972656 -4.179688 4.171875 -4.097656 4.359375 -3.984375 C 4.546875 -3.867188 4.695312 -3.703125 4.8125 -3.484375 C 4.9375 -3.273438 5 -3.035156 5 -2.765625 L 5 0 L 3.546875 0 L 3.546875 -2.375 C 3.546875 -2.59375 3.472656 -2.78125 3.328125 -2.9375 C 3.191406 -3.101562 3.015625 -3.1875 2.796875 -3.1875 C 2.578125 -3.1875 2.378906 -3.101562 2.203125 -2.9375 C 2.023438 -2.769531 1.9375 -2.582031 1.9375 -2.375 L 1.9375 0 Z M 0.484375 0" transform="translate(39.579 17.058)"/></g></g></g><g fill="#AD6687"><g><g><path d="M 0.875 -0.5 C 0.414062 -0.914062 0.1875 -1.445312 0.1875 -2.09375 C 0.1875 -2.738281 0.425781 -3.269531 0.90625 -3.6875 C 1.394531 -4.101562 2 -4.3125 2.71875 -4.3125 C 3.414062 -4.3125 4.003906 -4.101562 4.484375 -3.6875 C 4.972656 -3.269531 5.21875 -2.738281 5.21875 -2.09375 C 5.21875 -1.445312 4.976562 -0.914062 4.5 -0.5 C 4.03125 -0.0820312 3.4375 0.125 2.71875 0.125 C 1.957031 0.125 1.34375 -0.0820312 0.875 -0.5 Z M 2 -2.796875 C 1.8125 -2.617188 1.71875 -2.382812 1.71875 -2.09375 C 1.71875 -1.800781 1.804688 -1.5625 1.984375 -1.375 C 2.171875 -1.195312 2.410156 -1.109375 2.703125 -1.109375 C 2.984375 -1.109375 3.210938 -1.203125 3.390625 -1.390625 C 3.578125 -1.578125 3.671875 -1.8125 3.671875 -2.09375 C 3.671875 -2.382812 3.578125 -2.617188 3.390625 -2.796875 C 3.203125 -2.984375 2.972656 -3.078125 2.703125 -3.078125 C 2.421875 -3.078125 2.1875 -2.984375 2 -2.796875 Z M 2 -2.796875" transform="translate(44.976 17.058)"/></g></g></g><g fill="#AD6687"><g><g><path d="M 2.71875 -3.125 C 2.445312 -3.125 2.210938 -3.023438 2.015625 -2.828125 C 1.816406 -2.628906 1.71875 -2.382812 1.71875 -2.09375 C 1.71875 -1.8125 1.816406 -1.566406 2.015625 -1.359375 C 2.210938 -1.160156 2.445312 -1.0625 2.71875 -1.0625 C 2.851562 -1.0625 2.976562 -1.078125 3.09375 -1.109375 C 3.207031 -1.140625 3.289062 -1.171875 3.34375 -1.203125 L 3.421875 -1.265625 L 3.921875 -0.25 C 3.878906 -0.226562 3.820312 -0.195312 3.75 -0.15625 C 3.6875 -0.113281 3.53125 -0.0546875 3.28125 0.015625 C 3.039062 0.0859375 2.785156 0.125 2.515625 0.125 C 1.890625 0.125 1.34375 -0.0859375 0.875 -0.515625 C 0.414062 -0.953125 0.1875 -1.472656 0.1875 -2.078125 C 0.1875 -2.691406 0.414062 -3.21875 0.875 -3.65625 C 1.34375 -4.09375 1.890625 -4.3125 2.515625 -4.3125 C 2.785156 -4.3125 3.035156 -4.28125 3.265625 -4.21875 C 3.503906 -4.15625 3.675781 -4.085938 3.78125 -4.015625 L 3.921875 -3.921875 L 3.421875 -2.9375 C 3.242188 -3.0625 3.007812 -3.125 2.71875 -3.125 Z M 2.71875 -3.125" transform="translate(50.372 17.058)"/></g></g></g><g fill="#AD6687"><g><g><path d="M 0.484375 0 L 0.484375 -4.1875 L 1.9375 -4.1875 L 1.9375 -3.59375 L 1.953125 -3.59375 C 1.960938 -3.613281 1.976562 -3.640625 2 -3.671875 C 2.03125 -3.703125 2.082031 -3.757812 2.15625 -3.84375 C 2.238281 -3.925781 2.328125 -4 2.421875 -4.0625 C 2.515625 -4.125 2.632812 -4.179688 2.78125 -4.234375 C 2.925781 -4.285156 3.078125 -4.3125 3.234375 -4.3125 C 3.390625 -4.3125 3.546875 -4.289062 3.703125 -4.25 C 3.859375 -4.207031 3.96875 -4.164062 4.03125 -4.125 L 4.15625 -4.046875 L 3.546875 -2.828125 C 3.367188 -2.984375 3.117188 -3.0625 2.796875 -3.0625 C 2.617188 -3.0625 2.46875 -3.019531 2.34375 -2.9375 C 2.21875 -2.863281 2.128906 -2.769531 2.078125 -2.65625 C 2.023438 -2.550781 1.988281 -2.457031 1.96875 -2.375 C 1.945312 -2.300781 1.9375 -2.242188 1.9375 -2.203125 L 1.9375 0 Z M 0.484375 0" transform="translate(54.38 17.058)"/></g></g></g><g fill="#AD6687"><g><g><path d="M 0.765625 -0.515625 C 0.378906 -0.941406 0.1875 -1.46875 0.1875 -2.09375 C 0.1875 -2.71875 0.378906 -3.242188 0.765625 -3.671875 C 1.160156 -4.097656 1.660156 -4.3125 2.265625 -4.3125 C 2.828125 -4.3125 3.285156 -4.140625 3.640625 -3.796875 L 3.640625 -4.1875 L 5.09375 -4.1875 L 5.09375 0 L 3.65625 0 L 3.65625 -0.46875 L 3.640625 -0.46875 C 3.285156 -0.0703125 2.828125 0.125 2.265625 0.125 C 1.660156 0.125 1.160156 -0.0859375 0.765625 -0.515625 Z M 2 -2.796875 C 1.8125 -2.617188 1.71875 -2.382812 1.71875 -2.09375 C 1.71875 -1.800781 1.804688 -1.5625 1.984375 -1.375 C 2.171875 -1.195312 2.410156 -1.109375 2.703125 -1.109375 C 2.984375 -1.109375 3.210938 -1.203125 3.390625 -1.390625 C 3.578125 -1.578125 3.671875 -1.8125 3.671875 -2.09375 C 3.671875 -2.382812 3.578125 -2.617188 3.390625 -2.796875 C 3.203125 -2.984375 2.972656 -3.078125 2.703125 -3.078125 C 2.421875 -3.078125 2.1875 -2.984375 2 -2.796875 Z M 2 -2.796875" transform="translate(58.446 17.058)"/></g></g></g><g fill="#AD6687"><g><g><path d="M 0.734375 -4.1875 L 0.734375 -5.75 L 2.1875 -5.75 L 2.1875 -4.1875 L 3.0625 -4.1875 L 3.0625 -3.09375 L 2.1875 -3.09375 L 2.1875 -1.75 C 2.1875 -1.363281 2.296875 -1.171875 2.515625 -1.171875 C 2.566406 -1.171875 2.617188 -1.179688 2.671875 -1.203125 C 2.734375 -1.222656 2.78125 -1.25 2.8125 -1.28125 L 2.875 -1.3125 L 3.234375 -0.140625 C 2.921875 0.0351562 2.566406 0.125 2.171875 0.125 C 1.890625 0.125 1.648438 0.078125 1.453125 -0.015625 C 1.265625 -0.109375 1.117188 -0.234375 1.015625 -0.390625 C 0.910156 -0.554688 0.835938 -0.726562 0.796875 -0.90625 C 0.753906 -1.082031 0.734375 -1.273438 0.734375 -1.484375 L 0.734375 -3.09375 L 0.125 -3.09375 L 0.125 -4.1875 Z M 0.734375 -4.1875" transform="translate(64.023 17.058)"/></g></g></g><g fill="#AD6687"><g><g><path d="M 2.3125 -4.3125 C 2.550781 -4.3125 2.785156 -4.285156 3.015625 -4.234375 C 3.253906 -4.179688 3.429688 -4.125 3.546875 -4.0625 L 3.71875 -3.984375 L 3.25 -3.046875 C 2.914062 -3.210938 2.601562 -3.296875 2.3125 -3.296875 C 2.144531 -3.296875 2.023438 -3.273438 1.953125 -3.234375 C 1.890625 -3.203125 1.859375 -3.140625 1.859375 -3.046875 C 1.859375 -3.023438 1.859375 -3.003906 1.859375 -2.984375 C 1.867188 -2.960938 1.878906 -2.941406 1.890625 -2.921875 C 1.910156 -2.898438 1.925781 -2.882812 1.9375 -2.875 C 1.957031 -2.863281 1.984375 -2.847656 2.015625 -2.828125 C 2.046875 -2.804688 2.070312 -2.789062 2.09375 -2.78125 C 2.113281 -2.78125 2.144531 -2.769531 2.1875 -2.75 C 2.226562 -2.738281 2.257812 -2.726562 2.28125 -2.71875 C 2.3125 -2.707031 2.347656 -2.691406 2.390625 -2.671875 C 2.441406 -2.660156 2.484375 -2.648438 2.515625 -2.640625 C 2.679688 -2.597656 2.828125 -2.546875 2.953125 -2.484375 C 3.078125 -2.421875 3.207031 -2.335938 3.34375 -2.234375 C 3.488281 -2.128906 3.597656 -2 3.671875 -1.84375 C 3.753906 -1.6875 3.796875 -1.507812 3.796875 -1.3125 C 3.796875 -0.351562 3.132812 0.125 1.8125 0.125 C 1.507812 0.125 1.222656 0.078125 0.953125 -0.015625 C 0.679688 -0.109375 0.488281 -0.203125 0.375 -0.296875 L 0.1875 -0.4375 L 0.78125 -1.4375 C 0.820312 -1.394531 0.875 -1.347656 0.9375 -1.296875 C 1.007812 -1.242188 1.140625 -1.171875 1.328125 -1.078125 C 1.515625 -0.992188 1.675781 -0.953125 1.8125 -0.953125 C 2.113281 -0.953125 2.265625 -1.050781 2.265625 -1.25 C 2.265625 -1.34375 2.222656 -1.414062 2.140625 -1.46875 C 2.066406 -1.519531 1.9375 -1.578125 1.75 -1.640625 C 1.570312 -1.703125 1.429688 -1.765625 1.328125 -1.828125 C 1.066406 -1.960938 0.859375 -2.113281 0.703125 -2.28125 C 0.554688 -2.457031 0.484375 -2.6875 0.484375 -2.96875 C 0.484375 -3.394531 0.644531 -3.722656 0.96875 -3.953125 C 1.300781 -4.191406 1.75 -4.3125 2.3125 -4.3125 Z M 2.3125 -4.3125" transform="translate(67.247 17.058)"/></g></g></g><g fill="#E6B0AD"><g><g><path d="M 1.9375 -6.453125 L 1.9375 -1.296875 L 4.171875 -1.296875 L 4.171875 0 L 0.46875 0 L 0.46875 -6.453125 Z M 1.9375 -6.453125" transform="translate(20.385 24.394)"/></g></g></g><g fill="#E6B0AD"><g><g><path d="M 0.75 -0.484375 C 0.375 -0.898438 0.1875 -1.40625 0.1875 -2 C 0.1875 -2.59375 0.375 -3.097656 0.75 -3.515625 C 1.125 -3.929688 1.597656 -4.140625 2.171875 -4.140625 C 2.703125 -4.140625 3.140625 -3.96875 3.484375 -3.625 L 3.484375 -4.015625 L 4.875 -4.015625 L 4.875 0 L 3.5 0 L 3.5 -0.453125 L 3.484375 -0.453125 C 3.140625 -0.0664062 2.703125 0.125 2.171875 0.125 C 1.597656 0.125 1.125 -0.078125 0.75 -0.484375 Z M 1.921875 -2.6875 C 1.742188 -2.507812 1.65625 -2.28125 1.65625 -2 C 1.65625 -1.726562 1.738281 -1.503906 1.90625 -1.328125 C 2.082031 -1.148438 2.3125 -1.0625 2.59375 -1.0625 C 2.863281 -1.0625 3.082031 -1.148438 3.25 -1.328125 C 3.425781 -1.503906 3.515625 -1.726562 3.515625 -2 C 3.515625 -2.28125 3.425781 -2.507812 3.25 -2.6875 C 3.070312 -2.863281 2.851562 -2.953125 2.59375 -2.953125 C 2.320312 -2.953125 2.097656 -2.863281 1.921875 -2.6875 Z M 1.921875 -2.6875" transform="translate(24.81 24.394)"/></g></g></g><g fill="#E6B0AD"><g><g><path d="M 4.609375 -3.515625 C 4.984375 -3.097656 5.171875 -2.59375 5.171875 -2 C 5.171875 -1.40625 4.984375 -0.898438 4.609375 -0.484375 C 4.234375 -0.078125 3.753906 0.125 3.171875 0.125 C 2.640625 0.125 2.203125 -0.0664062 1.859375 -0.453125 L 1.84375 -0.453125 L 1.84375 0 L 0.46875 0 L 0.46875 -6.734375 L 1.859375 -6.734375 L 1.859375 -3.625 C 2.203125 -3.96875 2.640625 -4.140625 3.171875 -4.140625 C 3.753906 -4.140625 4.234375 -3.929688 4.609375 -3.515625 Z M 3.421875 -1.328125 C 3.597656 -1.503906 3.6875 -1.726562 3.6875 -2 C 3.6875 -2.28125 3.597656 -2.507812 3.421875 -2.6875 C 3.242188 -2.863281 3.019531 -2.953125 2.75 -2.953125 C 2.488281 -2.953125 2.269531 -2.863281 2.09375 -2.6875 C 1.914062 -2.507812 1.828125 -2.28125 1.828125 -2 C 1.828125 -1.726562 1.910156 -1.503906 2.078125 -1.328125 C 2.253906 -1.148438 2.476562 -1.0625 2.75 -1.0625 C 3.03125 -1.0625 3.253906 -1.148438 3.421875 -1.328125 Z M 3.421875 -1.328125" transform="translate(30.157 24.394)"/></g></g></g><g fill="#E6B0AD"><g><g><path d="M 2.21875 -4.140625 C 2.445312 -4.140625 2.671875 -4.113281 2.890625 -4.0625 C 3.117188 -4.007812 3.285156 -3.957031 3.390625 -3.90625 L 3.5625 -3.8125 L 3.109375 -2.90625 C 2.796875 -3.070312 2.5 -3.15625 2.21875 -3.15625 C 2.0625 -3.15625 1.945312 -3.140625 1.875 -3.109375 C 1.8125 -3.078125 1.78125 -3.015625 1.78125 -2.921875 C 1.78125 -2.898438 1.78125 -2.878906 1.78125 -2.859375 C 1.789062 -2.835938 1.800781 -2.816406 1.8125 -2.796875 C 1.832031 -2.773438 1.847656 -2.757812 1.859375 -2.75 C 1.878906 -2.738281 1.90625 -2.722656 1.9375 -2.703125 C 1.96875 -2.691406 1.988281 -2.679688 2 -2.671875 C 2.019531 -2.660156 2.050781 -2.644531 2.09375 -2.625 C 2.132812 -2.613281 2.164062 -2.601562 2.1875 -2.59375 C 2.207031 -2.59375 2.242188 -2.582031 2.296875 -2.5625 C 2.347656 -2.550781 2.382812 -2.539062 2.40625 -2.53125 C 2.570312 -2.488281 2.710938 -2.4375 2.828125 -2.375 C 2.953125 -2.320312 3.078125 -2.242188 3.203125 -2.140625 C 3.335938 -2.046875 3.441406 -1.921875 3.515625 -1.765625 C 3.585938 -1.617188 3.625 -1.445312 3.625 -1.25 C 3.625 -0.332031 2.992188 0.125 1.734375 0.125 C 1.441406 0.125 1.164062 0.078125 0.90625 -0.015625 C 0.65625 -0.109375 0.472656 -0.195312 0.359375 -0.28125 L 0.1875 -0.421875 L 0.75 -1.375 C 0.789062 -1.332031 0.84375 -1.285156 0.90625 -1.234375 C 0.976562 -1.191406 1.101562 -1.125 1.28125 -1.03125 C 1.457031 -0.945312 1.609375 -0.90625 1.734375 -0.90625 C 2.023438 -0.90625 2.171875 -1.003906 2.171875 -1.203125 C 2.171875 -1.285156 2.132812 -1.351562 2.0625 -1.40625 C 1.988281 -1.457031 1.863281 -1.515625 1.6875 -1.578125 C 1.507812 -1.640625 1.375 -1.695312 1.28125 -1.75 C 1.03125 -1.875 0.832031 -2.019531 0.6875 -2.1875 C 0.539062 -2.351562 0.46875 -2.570312 0.46875 -2.84375 C 0.46875 -3.25 0.625 -3.566406 0.9375 -3.796875 C 1.25 -4.023438 1.675781 -4.140625 2.21875 -4.140625 Z M 2.21875 -4.140625" transform="translate(35.506 24.394)"/></g></g></g><g fill="#E6B0AD"><g><g><path d="M 1.359375 -1.671875 C 1.609375 -1.671875 1.820312 -1.582031 2 -1.40625 C 2.175781 -1.238281 2.265625 -1.03125 2.265625 -0.78125 C 2.265625 -0.53125 2.175781 -0.316406 2 -0.140625 C 1.820312 0.0351562 1.609375 0.125 1.359375 0.125 C 1.117188 0.125 0.910156 0.0351562 0.734375 -0.140625 C 0.554688 -0.316406 0.46875 -0.53125 0.46875 -0.78125 C 0.46875 -1.03125 0.554688 -1.238281 0.734375 -1.40625 C 0.910156 -1.582031 1.117188 -1.671875 1.359375 -1.671875 Z M 1.359375 -1.671875" transform="translate(39.358 24.394)"/></g></g></g></svg>